<svg height="90" viewBox="0 0 84 90" width="84" xmlns="http://www.w3.org/2000/svg" xmlns:xlink="http://www.w3.org/1999/xlink"><mask id="a" fill="#fff"><path d="m.00025787.11073298h83.83174213v89.41806282h-83.83174213z" fill="#fff" fill-rule="evenodd"/></mask><g fill="none" fill-rule="evenodd"><g fill="#b69d75"><path d="m64.1600649 35.7512507c-1.022971-.5838235-3.598784-.7738727-8.3511211-.6121187l-.2493786.0084886c-1.496272.0481017-2.7997352.1669414-3.8481627.2636166-.3342334.0311246-.6887377.0650788-.9918577.087715.2012943-.6210789.4959288-1.6613977.920674-3.4722882.6887377-2.9370379.433702-4.5187376.1904517-6.0499775-.0542127-.3253944-.1051256-.6489024-.1475529-.988916-.2437217-1.9985817-1.1761811-4.6234297-1.8983892-5.9080301-.9975147-1.7774078-3.6982527-2.0462119-3.8146922-2.0580015-.5864406-.0565904-1.6348681-.0481018-2.0798841.6041017-.2121369.3088889-.297463.830463-.3766608 2.3357657l-.0084855.158453c-.0146138.2098557-.0395988.8677183-.0740121 1.6868633-.047613 1.1228464-.1074827 2.5512806-.158867 3.5406681-.0843833 1.6783748-1.1898521 3.8580455-1.663153 4.7144458-.3969316.7224699-1.5104144 2.2961525-2.405632 3.5571736-.5411847.7658558-1.0060001 1.4260763-1.2129514 1.7491127-.75945 1.1992434-2.2071662 1.468519-2.8223631 1.4968142-.2064799.0084885-.1645239.2098558-.1645239.2098558l.0622268 1.0205122s.0089569.2579576.2413646.238151c.9065315-.087715 2.8704474-.4418762 3.9782733-2.1909889.1984658-.3121899.6486673-.9469448 1.170524-1.6840338.915017-1.2954469 2.0544277-2.9054417 2.4937867-3.699121.6458389-1.1766072 1.7423507-3.4331465 1.8418194-5.3411837.0480843-.9922171.107954-2.4263103.155567-3.5515146.0339419-.8082985.0626982-1.4572009.0735408-1.6670567l.0089569-.161754c.0424273-.8021679.0905117-1.3265716.1131396-1.5222798.1277536-.0282952.3681753-.0537608.6859092-.0254657.6514959.0622494 2.1538963.4564953 2.6243687 1.2954469.6571528 1.1709482 1.504286 3.6114061 1.7225513 5.3774959.0424274.3574622.0989972.6974757.1527385 1.0403188.2352363 1.4572009.45633 2.8351754-.1697094 5.4968071-.753793 3.2232907-1.06257 3.855216-1.1818381 4.0961965-.1159681.2409804-.0881546.6012722.0683552.8163154.3596899.4961086.8782467.4480068 2.8082207.2692757 1.0281566-.0962036 2.3094633-.2122137 3.7571795-.257486l.2522072-.0089601c5.5942847-.1895776 7.1183702.1759016 7.5294443.4083935.9070029.5187446 1.3265625.8446106.9664013 2.5512806-.0961687.3319965-.1899804.6437149-.283792.9639219-.1357676.3400135-.2918061.5583578-.5407133.7054927-.3347048.1815606-.8362907.2414521-1.7178372.2499406-.5180853.0051875-1.0168427.0113181-1.4590302.0169771-.2210937.005659-.5609841.0367837-.731165.2890823-.1984658.2919117-.2776636.5526988-.3964602.824804-.1220966.2805937-.0089569.3744393.2776635.3744393.5355278-.0084885 1.4109459-.0231077 2.3236058-.0315963 1.0738839-.0084885 1.8361624-.1244987 2.4084605-.4107514 0 0 .2210938-.1164818.5468417-.394246.3262193-.2749346.6745952-.912519.9239739-1.7038404.0169709-.0565903.0853261-.3994334.1187966-.5187447.0032999-.0084885 0-.0169771.0032999-.024994.0028285-.0084886.0080141-.0146192.0080141-.0259372.5077142-2.36972-.2324077-3.3138353-1.680124-4.1386393"/><path d="m63.4954564 50.0287984c-.3583509.068808-.826842.1724295-1.0961322.2682691-.158623.0589783-.2598044.1896314-.3393794.3325718-.1296387.2903859-.1897152.472645-.3193539.7482864-.0031619.0098297-.0126477.0147446-.0158096.0245743-.0411049.0987066-.079575.1798017-.117518.2633542-.0316192.0667601-.0600765.1232809-.0916957.1896314-.3583509.6868508-.8015466.8224188-2.5658978.834706-.5828472.0049148-1.140399.0098297-1.6347125.0172019-.2471567.0024575-.6239522.0294892-.8173562.2486097-.2213344.2535245-.3103952.4800174-.4431958.7163399-.1364895.2441044-.0100127.3251995.3103951.3276569.5986568-.0098297 1.577271-.0196594 2.600679-.0270317 2.5153071-.0196594 3.5128928-.4284114 4.1937595-1.7971981.0100127-.0073722.0131747-.0172019.0221334-.0225264.2698172-.5660273.4816658-1.0951931.7699275-1.7500974.1238418-.3301143.0252953-.4681398-.4558434-.374348"/><path d="m60.5204979 55.0340294c-.0278579.0051363-.0612874.0102727-.0891452.0179772-.0506085.0102726-.1063243.0179771-.1560041.0282497-.2874005.0492232-.6147305.0903138-.7818778.1853358-.130932.0719085-.292972.362967-.437833.6099386-1.0943502 1.9115691-1.7220811 2.0943367-2.3419188 2.320763-1.417966.519625-4.5213335.6227795-7.0610433.2315627-.5274425-.0826092-1.079957-.1750631-1.6357217-.2675169-2.1236988-.3552625-4.3147209-.7229378-5.6235768-.5457346l-5.2108159.7023925s-.2233273-.0256816-.1759689.2807858c0 0 .039001.583829.0612873.8539141.0227506.2705131.2544353.2007447.2544353.2007447l5.2939252-.7152333c1.0664924-.1391088 3.2212992.22129 5.1249208.5401702.5659792.09545 1.1240654.1879039 1.6575437.2705131 1.0298129.1592261 2.2801673.252108 3.5193785.252108 1.6468648 0 3.2765507-.1647904 4.3620793-.5637117 1.1194223-.4087659 2.1097699-.9288188 3.6029521-3.882634.2344704-.4755381.1174674-.6300559-.3626167-.5196249"/><path d="m64.4949265 44.0287808c-.3575049.0687657-.8255784.1723235-1.0946286.2705602 0 0-.0036856 0-.0068447.002456-.1584816.0564861-.2590463.187059-.3380238.3299116-.1300497.2902076-.1905991.4723549-.3201223.747827-.0031591.0098237-.0126364.0147355-.0189546.0245592-.0379092.098646-.0758184.1796913-.1142541.2631925-.0310645.0687657-.060023.1232052-.091614.189515-.1800687.3421912-.3796186.5464417-.74976.6667817-.3764596.1207493-.9271962.1575881-1.8106915.1649558-.5786421.0049119-1.1362235.0098237-1.6300963.0171915-.1832279.0024559-.4428007.0171914-.6418241.1182933-.0700267.0343829-.1332087.0761335-.1805952.1326196-.2216636.2533689-.310645.4797226-.4433273.7159001-.1363678.2439545-.0089507.3274557.3101185.3274557.5986497-.0073678 1.5763915-.0196473 2.5957282-.0270151 1.2589018-.0098237 2.139238-.1182934 2.7884334-.3937655.6481422-.2758814 1.0693557-.7187653 1.4110652-1.404785.0094773-.0073678.0126364-.0171915.0189546-.0225126.2722092-.5656798.4843955-1.0945208.7724002-1.7490229.1237315-.3299116.028432-.4678523-.4559636-.3741181"/><path d="m37.5494795.33135078c-22.9859318 2.30842932-39.72627268 22.12445022-37.31890904 44.17256542.86911363 7.9562828 4.1193409 15.1280105 8.99372727 20.9431414.08638636 2.8578534-.77747728 8.3360733-1.80743182 11.4007853-1.50627273 4.4811519-4.35511364 9.627644-4.70781818 10.2025131l-1.52631818 2.4785341 22.67904545-12.9444503c6.7505455 3.1042932 14.4422727 4.5179057 22.4208409 3.7159162 22.9830682-2.3084293 39.7262727-22.123979 37.3193864-44.1720942-2.4102273-22.0481152-23.0665909-38.10534033-46.0525228-35.79691102m8.5727728 78.50214662c-7.8668864.7902094-15.4464546-.6573299-22.0566818-3.798377-.0090682.0028272-.0143182.0056545-.0200455.0084817-.12075-.1135602-.2553409-.1559686-.4534091-.0424084l-1.3253864.7562827c-.0200454.0084817-.0400909.0197906-.0601363.0254451.0023863.0028272.00525.0028272.0085909.0056544l-16.9069091 9.6700524c1.11013636-2.152932 2.62786364-5.3420419 3.57190909-8.1574869 1.11013636-3.299843 2.00263641-9.0442932 1.87615911-12.0519896 0-.3628272-.3297955-.7110471-.3297955-.7280104-4.69349997-5.6002618-7.82918179-12.505288-8.66679543-20.1703665-2.31859091-21.237644 13.80797723-40.32848171 35.95056823-42.55209427 22.1421136-2.22361257 42.0415227 13.24460737 44.3596363 34.48225127 2.3214546 21.2409424-13.8055909 40.3289529-35.9477045 42.5525655" mask="url(#a)"/></g><path d="m34.4834336 36.6888267c-.0267311-.3864379-.3752251-.6888267-.7945069-.6888267h-4.6393262c-.3034471 0-.4222519.0849882-.2940418.3643691.124745.2709292.2084034.5305891.4163117.8212393.2024632.2850155.645506.2906501.8633147.2906501h2.5379668c.2173138.0028173.347999.0366247.3687898.1892278l.0598974.770528v-.0028173l.5593725 8.2814157c.0029701.1014224.0054452.2197484.0113854.2821983.0212859.2230352-.0113854.3329094-.2346394.358265h-2.9102218c-.3039422 0-.425717.0821709-.2975069.3643692.124745.2709291.2084034.530589.4197768.8212392.2019682.2850155.6187749.2624772.8355936.2624772h1.9078065c.2376096.0028173.398491.0112692.4168068.1723241l.0054452.0478939.6158047 9.1477315c.0178207.2230352-.0148506.3329094-.2410747.3554477l-.0415817.0028173h-4.0943092s-.1692968.0084518-.3212679 0c-.1544462-.0084519-1.2588356-.0817013-1.4850596-.9541213-.0772231-.3047365-.1519711-.9879287-.1697918-1.2076771 0 0-.1876126-2.9327959-.2915667-4.5893608-.0054453-.279381-.023266-.5423278-.0504921-.7817972 0-.0061041-.0029701-.0117387-.0029701-.0169037-.0029701-.0112692 0-.019721 0-.034277-.0059402-.0507112-.0113854-.1042396-.0178207-.1577681-.0059402-.0422593-.0143556-.0765363-.0178207-.1187956l.0034651-.0028173c-.0034651-.0169037-.0094054-.0281729-.0123755-.0450766-.1430607-1.0273707-.4910597-1.608671-1.0326114-2.0547414-.0054452-.0028173-.0084153-.0084519-.0148506-.0140865 0 0-.0029701 0-.0029701.0028173-.2440448-.2004969-.523236-.3244576-.8479691-.4995989.8360886-.6240291 1.1187449-1.1208108 1.344969-1.8119852.2291942-.691644.1311803-2.4557354.1311803-2.4557354l-.2593904-4.2564514c-.0054452-.098605-.0861335-.9794768-.2084034-1.4509029-.4366075-1.6988241-2.293427-2.080097-2.9572487-2.080097h-3.9428332c-.2197888 0-.4311623.0821709-.5801632.2314871-.1519711.1469685-.2291942.3446481-.2173138.5474928l1.5147608 22.5293761c.0267311.3897247.3747301.6888267.797477.6888267h.74649v.0028173h2.1964031c.3034472 0 .4252221-.0817013.2945368-.3638996-.1222699-.2713987-.2084033-.5305891-.4168067-.8212392-.2019681-.2854851-.6455059-.2911197-.8628196-.2911197h-.3455239v-.0028173h-.4697738c-.2440448 0-.3836404-.0281728-.4044313-.192045l-.0301962-.406159-1.3746701-20.4549136h2.9968502c.2108785 0 1.2796264.0817014 1.5053554.9541213.0777181.3047365.148506.990746.1692968 1.2081466 0 0 .1197948 2.1815194.2534502 4.1573768.1633565 2.4078415-.1965229 2.7520201-.4672988 3.0032282-.37473.3441786-.7261941.6404633-.9910297.7958836-.2529552.1695068-.6068944.3272749-.746985.4094457-.2975069.1774891.2291942.2033143 1.5474321.9902765.2351344.1413339.449478.3446481.6252101.6352983.026236.0422593.049997.0873359.074253.132882.0445517.0873359.0891035.1746718.124745.2676423.2024631.466261.3212678.9968501.3544342 1.6316788.0059402.113161.0386115.5474928.0386115.5559447l.2559253 4.2564514c.0089104.0990746.0891036.9794768.2108785 1.4509029.4375975 1.6992937 2.2498652 2.080097 2.9582387 2.080097h.3272081 5.3204735c.2197888 0 .4311623-.0817013.5801633-.2314871.1519711-.1469685.2291942-.3441786.2143436-.5474928z" fill="#fff"/></g></svg>