<svg height="51" viewBox="0 0 281 51" width="281" xmlns="http://www.w3.org/2000/svg" xmlns:xlink="http://www.w3.org/1999/xlink"><mask id="a" fill="#fff"><path d="m.12118669.01323183h29.03725581v26.02843487h-29.03725581z" fill="#fff" fill-rule="evenodd"/></mask><g fill="none" fill-rule="evenodd" transform="translate(1)"><g fill="#000"><g transform="translate(60)"><path d="m25.1121111.04580921c-2.5001667.32529488-4.4512222 1.51391697-5.8803889 3.34113817-.7042778.89968597-1.5843333 1.19945236-2.7261111 1.19983915-1.4602778.0003868-2.8241111-.15046338-4.0277222-1.31471737-.7836111-.75773207-1.5983333-.61113664-2.0105556.29009651-.5763333 1.25901884-1.13399997 2.54395297-1.5038333 3.88419884-.679 2.4580844-2.63783333 3.44634649-4.99061111 4.00565259-.89794445.213511-1.35916667-.2084827-1.267-1.149169.30488889-3.11873084 3.99544444-7.08957183 7.14894444-7.74673712.39394447-.08200061.67588887-.50283394 1.00955557-.76662837-.3807222-.36126685-.7583333-.98516774-1.14411112-1.02732843-.76416667-.08470818-1.60805556.00966989-2.28783334.28003983-3.54588888 1.40986903-5.87766666 3.93641621-7.02488888 7.43459329-.26016667.79370404-.33016667 1.7061543-.26172223 2.5698683.13572223 1.7169845 1.62905556 3.0286075 3.40316667 3.0092677 3.33627778-.0371323 7.5848889-2.6959635 7.8769444-5.93344053.0614445-.6815334.2496667-1.34063266.3391112-1.79975874 1.7492222.3075023 3.3257777.58560815 4.9159444.86564798-.1781111.9720167-.4483889 2.02990196-.5514444 3.11795729-.1158889 1.2342639.1827777 2.4553768 1.3871666 3.288534 1.2483334.8641008 2.5398334.7136374 3.7146667.1500766.6716111-.3225873 1.2456111-.8076287 2.0891111-1.3696423-.1855.6513633-.3029444 1.0865081-.4324444 1.5170113-1.2728334 4.2265127-1.8262223 5.431767-3.0555 9.6729779-.2372223.818459-.6338889 1.9355239.7132222 2.3845933 1.2876111.4293429 1.4544444-.7434206 1.7048889-1.5077282 1.2619444-3.8559628 1.7192777-4.7235447 2.9403889-8.5949793.8921111-2.8297948 1.7947222-5.6557215 2.6596111-8.49479936.2080555-.68385417.3336666-1.56071921-.5837223-1.89258962-.4534444-.16400122-1.2506666.17328432-1.6383888.53107001-1.6360556 1.50772825-3.15 3.13420267-4.7693334 4.65933667-.4612222.434758-1.1266111.6741843-1.8316666 1.0803194-.1205556-.4769186-.1823889-.63125-.1944445-.7840341-.2504444-3.17288223 3.1807222-7.67827439 6.3462778-8.3837891.8532222-.1903033 1.5069444.03713236 2.2186111.63125.3756667.31369103 1.0270556.31949296 1.5536111.46454121.0602778-.54383425.329-1.14375383.1411667-1.62105928-.5316111-1.34952895-2.3395556-2.20512025-3.9806667-1.99160922" mask="url(#a)" transform="translate(35.416667 22.916667)"/><path d="m137.577841 22.908891c-2.187712-.0948366-3.938259.6984792-5.455173 1.9528062-.895401.739876-1.76108 1.5132459-2.639927 2.2715624-.070729-.4621402.012791-.8136378.139577-1.1433079 2.227968-5.7854092 3.265579-8.0652511 5.496181-13.849155.174565-.4527319.455977-.8971844.455601-1.3781414-.000377-.4388075-.238523-1.21293009-.511658-1.31830409-.413841-.15994269-1.137309-.0316122-1.392762.26569303-.491342.57240666-.807742 1.31943306-1.092163 2.04500836-2.329547 5.9419649-3.458203 8.3843838-5.742228 14.3477998-.961239 2.510912-1.823156 5.069995-2.7242 7.6102612-.243037.6853073-.279907 1.4052376.528211 1.9080221.867561.5396655 1.443175.1185458 1.886361-.5027845.149735-.2092427.276145-.4361731.417979-.6514372 1.980416-3.0061698 4.375049-5.6360039 7.234312-7.8390733 1.066956-.8222935 2.879954-1.8805496 3.945406-1.3198094.542508.3703144-.218959 1.9938267-.633176 2.4860739-1.142577 1.6381894-2.233987 2.8168729-3.499211 3.6282528-1.414583.9950316-3.317121 2.0408686-4.672638 3.1183178-.360794.2867679-.790435 1.1658881-.490213 1.5410949.186981.3262831 1.322409.4866021 1.713677.2924128 2.854372-1.4150223 6.136128-3.5202444 8.003679-5.7330985.924745-1.3250781 1.665896-2.8925164 2.013146-4.5118891.39202-1.8308733-.997356-3.134124-2.980781-3.2203049"/><path d="m72.8796637 25.3413757c-.3224388 2.6129529-2.4786763 3.0364841-4.1794355 3.8935862.8281424-1.7502732 1.7828066-3.3611046 4.1794355-3.8935862m16.7395958 9.4199427c-2.885463-.1543155-4.2112577-1.4137537-4.2587992-4.1126028-.0394901-2.2277218-.8814349-4.0720717-2.9123009-5.4876846-.3891502-.2718185-.7184902-.8269827-.810506-1.276543-.1970673-.9597313-.5563124-1.808281-1.6233126-1.9897412-.5244902-.0888709-1.254099.1312612-1.5983915.478936-.6805338.6875409-.2231384 1.5074586.2561107 2.3084122.215087.3595738.3588617.96754.1916996 1.2646439-1.9511189 3.4756328-4.9090443 5.9264614-8.7944126 7.3074928-1.6244627.5778467-2.2658897-.0319787-2.1642889-1.8618266 2.649289.0293757 5.8694595-1.9150004 6.7370921-4.0166669.531008-1.2873264.3596285-2.6356355-.4838499-3.3715162-1.0992057-.9589876-2.224866-.6715516-3.265795-.21567-2.5043641 1.0961983-3.9271588 3.1510124-4.8327479 5.5475517-.3580949.9463449-.5037866 2.0648538-.4041028 3.1071346.1986008 2.0767529 1.6639528 3.2949162 3.7941192 3.1718356 1.0796524-.0624699 2.1964944-.3428408 3.1250875-.8039283 3.3869492-1.6829693 6.0987323-4.0835989 8.0164954-7.259153.1510594-.2502515.3343242-.4804234.5011029-.7165448 1.3284785.8571022 1.6397987 1.2196508 1.8403165 2.4742549.139174.8716041.0322056 1.7621722.226589 2.622621.197834.8771817.3833993 1.9819324 1.0060397 2.5411869 1.8015932 1.6182683 3.9873525 2.3392752 6.3046177 1.8168334.4723479-.1063476 1.3319291-.5228137 1.1785694-1.0222012-.1771305-.5938361-1.8629371-.498272-2.0293324-.5068244"/><path d="m125.145393 39.5876697c-.11435.0259123-.225986.0525981-.332583.0703886-1.636944.2707255-3.270786.5499595-4.904628.8288067-3.307998.564656-6.728408 1.1490363-10.113931 1.653746-3.113409.4641008-5.854698.440509-8.382793-.0734827-1.5784123-.3202295-2.6079462-1.1095877-3.0603054-2.3448694l-.1461349-.3933254c-.3418859-.9135052-.6957881-1.8579503-.6647781-2.7142164.0821767-2.2798953.1755945-4.8645501.7527692-7.2291438.0158926-.0638139.0333358-.1249205.0496161-.1887344.8175026-2.6689665 4.1359661-13.1758224 7.3416311-18.8788481.069385-.1229867.119776-.2544819.181796-.38172292.196914-.40260747.401193-.81952471.46205-1.27240977.038375-.28503526-.151949-.58089953-.335684-.86709504-.07171-.1113842-.143421-.22315515-.198464-.33144534l-.087603-.17365106-.206605.04757033c-.14032.03248706-.29382.0556921-.44732.07851039-.386463.05839936-.786493.11834571-1.036124.32061632-.345762.280781-.51748.66327743-.682996 1.03339784-.038375.08508515-.075975.1693968-.115125.2517747-1.693149 3.50937575-3.206827 7.42367945-4.6980236 11.69302035l-.03101-.0386751-.1465225.3778554c-.1403206.3623854-.2806411.7321191-.4221245 1.1177095-1.0706222 2.916487-1.9633242 5.9505461-2.6536856 9.0178658-.7330002 3.2560541-.6202011 5.9443581.3542899 8.4597846 1.1066714 2.8580876 3.0498391 4.3548127 6.2996933 4.8525609.531047.0816044 1.068684.1284012 1.588102.1732643.238778.0208845.477168.0417691.727961.0665211l.138383.0081218c3.930137.2107791 7.680028-.4474706 11.307817-1.0836755l.56826-.0993949c3.262645-.5704573 6.542346-1.293681 9.435585-1.9318197.374059-.0823779 1.070622-.2363046 1.31095-.6795209.129079-.2378517.112024-.52134-.051554-.8427298-.429102-.845437-1.255132-.6539954-1.800909-.5267544"/><path d="m113.336601 23.0274157-.037055-.0033788-.008152-.1073702-1.845693.1272675c-1.255782.0855959-2.511935.1719426-3.767718.2635452l-.713673.0495555c-.960086.0656986-1.953151.1328988-2.928059.2778111-.393891.0581902-.896723.634836-.910804 1.0447952-.015192.4230989.35943.9745915.70478 1.184827.23085.1404073.500608.1771985.767402.1771985.153406 0 .305701-.0123889.448732-.0232761 2.243289-.1779493 4.110474-.3423835 5.876499-.5173294 1.136096-.1122507 2.062092-.245525 2.913979-.4200955.33238-.0679511.736646-.5612536.746281-.9107701.010375-.3874339-.359431-.7943897-.595098-.9603255-.205654-.1437861-.442433-.1644342-.651421-.1824544"/><path d="m150.59211 25.6231042c-.812147 1.8119817-2.40284 2.65653-4.08479 3.5415312-.367318.1931051-.741509.3942243-1.111118.6037395.922113-1.8444203 3.474248-3.917819 5.195908-4.1452707m41.041107-11.3783141c-.200841-.3289655-.854148-.6197679-1.338687-.6850268-.755255-.1022769-1.527692-.1366237-2.274164-.1694439-.386792-.0171734-.773965-.0343468-1.160756-.0602976-1.743806-.1179239-3.487612-.2411905-5.297856-.3694184l-2.21689-.162193c.077129-.1889071.143567-.3575878.205041-.513293.114166-.2885127.209623-.5312297.31959-.7678406.153876-.3324002.52043-1.157867.590687-1.64864387.136312-.95674772-.180605-1.32845585-.395574-1.46698773-.168767-.03358349-.342499-.06793024-.522721-.06831187-.389083 0-.720127.17020722-1.042771.53466437-.338299.38239378-.613215.88500118-.836966 1.3261661-.563196 1.1101632-.661325 1.3597495-.623524 1.3738698.003436.0061061.002291.0164102-.048492.1121994-.360064.675486-.621997 1.0109393-1.399016 1.0105576-.082857 0-.584196-.0423609-.675071-.0450324-3.056147-.0873934-5.596445-.178603-8.2364-.1801296-1.481109-.0007632-3.059202.1541788-4.455927.1801296-1.28905.0244244-2.520825.077471-3.662489.6323618-.295153.1434931-.516231.3961325-.591451.6758677-.063765.2369925-.014891.4671157.140131.6674718.091638.1908152.51814.3961324 1.240557.3965141.100421 0 .205042-.0038163.313481-.0122122.418483-.0332019.840402-.1018954 1.247812-.1682991.555559-.0904464 1.130209-.1839459 1.706387-.1885254.721654-.0053429 1.443308-.007251 2.166107-.0068694 2.765195.0011449 5.656392.042361 7.979812.0751812.502103.0068694 1.018716.0694568 1.566638.1362421.274152.0332019.560523.0679302.868658.1049484l-.203514.4987911c-.124858.3079758-.234824.5789335-.353954.8460749-2.206963 4.9554723-3.91755 9.2575932-5.179872 15.0186876-.030928.1423481-.163422.6789207-.310044 1.343721-.416955.7342571-.812147 1.2101504-1.1493 1.5223242-.339445.2232538-.702563.4159772-1.077136.5686295-.751818.3068309-1.546783.4529954-2.279128.3705632-.092784-.0118306-.183659-.024806-.268806-.0435059-.703708-.1553236-1.139755-.5636683-.994661-1.4143227.046965-.2743923.08553-.5514561.122185-.8292831.11073-.8327178.206569-1.6707785.466593-2.453121.590305-1.7753452.243606-3.305302-.878585-4.6871861-.159604-.1995928-.334863-.3968958-.526158-.5911457-.369609-.3751428-.764419-.7212817-1.0989-1.0975694-.111493-.1251748-.216114-.2541659-.311189-.3877366-.237497-.3354532-.413901-.7048716-.480339-1.1422201-.039328-.2625618-.039328-.549548.010309-.8685911.059184-.3755244-.081711-.7182286-.335244-.9907128-.0042-.0045796-.009164-.0087775-.013364-.0129755-.056892-.059916-.120276-.1148708-.187095-.1679174-.280262-.2205824-.638416-.3755244-1.007261-.432769-.198551-.0305305-.399392-.0332019-.592215-.0038163-.125621.0194631-.244369.0496119-.354717.0893015-.221079.0797608-.409319.1980663-.55976.3503368-.07522.0755629-.140894.1599032-.196641.2514946-.059947.0988423-.105766.207607-.141658.3228594-.108057.3220961-.116839.7060164-.0042 1.1322977.063384.2392824.184041.4663525.308899.6930411.124857.2270701.253533.4529954.331808.6915145.058038.1747867.121421.3911713.15044.5926722.021764.1904336.009927.3648388-.073311.4720769-.325699.4186487-.656743.8319546-.994279 1.2391543-.001527.0015266-.002673.0034347-.004582.0053429-.337535.4071997-.681562.808675-1.032843 1.2025177-2.135179 2.3943499-4.546802 4.4998055-7.505583 6.0095359-.07942.0324386-.155403.0717465-.235587.1030402-.105385.0522834-.212296.1030403-.316535.1557053-.773964.3205696-1.495236.5671029-1.962593.6312169-.326463.0679302-1.371525.0599159-1.638804-.302633-.053074-.0717466-.088584-.1293728-.12333-.1877623-.085911-.1797479-.093548-.3285838-.074075-.5800784.032074-.4140691.300499-.9468253.416956-.9952924 2.138997-.2961452 4.119155-1.2288502 6.054638-2.8515432.811765-.6804472 1.53151-1.7379454 1.975957-2.900392.144331-.3797224.187478-.7537203.136313-1.0975694-.034747-.3335451-.157313-.6407576-.367318-.897595-.430702-.5270317-1.167247-.7861588-2.017577-.7113593-.882785.0782343-1.821698.3690367-2.57619.7976078-2.424986 1.376923-4.253558 3.3213305-5.435314 5.7801759-.375718.781961-.603287 1.6768845-.639942 2.5206696-.037801.8544708.13173 1.6127706.481102 2.2241427.200841.3858285.467357.7186103.800311.982317.581523.4598648 1.337923.7430346 2.180998.6861717 1.149301-.077471 2.697993-.6644188 3.639579-1.07429.430702-.1873806 1.387943-.7254796 2.347476-1.3372333.066438-.042361.132112-.084722.198168-.1274646.051929-.0339651.103094-.0675486.155022-.1015137.048492-.032057.097748-.0637323.145858-.0957893.581523-.3877366 1.125628-.7842507 1.516237-1.1280998 1.245903-1.0010169 2.386422-2.1142331 3.459739-3.2927082.000763-.0007632.001527-.0019081.002291-.003053.500194-.549548.988933-1.1097816 1.465835-1.6810825.000764-.0007632.00191-.0015265.002673-.0026714.305462-.3652204.598324-.7407448.886604-1.1177958.289043-.3766693.573886-.75601.863693-1.1288631.414665.2698128.766328.5258869 1.059953.7785263.240552.2072254.437956.412161.60367.619768.685762.8865277.723563 1.8306816.308516 3.2701919-.199314.6911329-.397864 1.3860821-.550595 2.0898088-.051165.2343211-.096984.4697871-.136694.7063981-.240552 1.445998.046583 2.8053659 1.337541 3.8220296.486449.3827755.990461.6220578 1.505928.7415081.064147.0152653.129439.0186999.193205.0301489.060328.0114489.120657.0194631.180604.027859.073693.0087775.14624.0190815.219551.0232794.474229.0351101.953805-.0167917 1.435671-.1469277.000764-.007251.001527-.014502.001909-.0213713.201987-.056863.403974-.122885.60596-.2037907.294771-.1186871.585724-.2476782.877822-.3835387.291334-.1362421.584959-.2785903.885458-.4239915.012982-.0160285.028255-.0339651.041237-.0503752.125239-.0721282.243224-.1499808.360445-.2285967.000764.0473222.002291.0984607.003055.1454012.004582.4144508.009545.8060037.056128 1.1945036l.046202.4075814c.068347.6296903.138985 1.2799887.372663 1.8799119.242079.6216761.844984 1.0235331 1.536092 1.0239147.234442 0 .462393-.0461773.67698-.1366237.3803-.1606665.607869-.3663653.696072-.6277822.113784-.3385063-.010692-.7693672-.379919-1.317007-.197405-.2919473-.234824-.7224265-.282934-1.0903184-.156931-1.1903056-.132494-2.5962324.068347-3.7544811 1.227576-7.0899318 3.697999-12.4713038 6.121458-17.9041959.14204-.3190431 1.018716-.594962 1.404362-.6033579.135167-.003053.270333-.0045795.405882-.0045795.615124.0003816 1.244758.0293855 1.853009.0580078.592596.0270958 1.205429.0553364 1.804898.0572446l1.448272.0026714c1.89501.0011449 3.933968-.010304 6.00271-.1034219.290952-.0129754.813674-.2892759 1.008788-.5934354.085147-.1328075.099657-.2549292.043528-.3629307"/><path d="m36.9050026 44.6604061-.1644395-.1254195c-4.2906889-3.3537252-8.4253319-7.2352095-12.6393332-11.8676766-.5680985-.6240292-1.1281849-1.2538115-1.685219-1.8805255l-.6299064-.7072586.4853064-.1607057c.5310901-.1768146 1.0804936-.3593825 1.6276079-.5166363 3.9301429-1.1310768 7.6195401-3.0296289 10.9651786-5.6415763 3.4856601-2.7216416 5.9816308-5.2258127 7.8549442-7.8811008 1.2071617-1.7109981 2.1026131-3.360629 2.6611733-4.903634 1.3784687-3.80976127-.4410489-7.34567074-4.747762-9.22696328-.7817555-.34135583-1.647066-.6378368-2.5715137-.88023779-3.2735293-.85722504-6.8904359-1.07316137-11.3833357-.67810912-6.8393108.60178349-12.3623423 2.29283727-16.88385696 5.17058201-6.79963162 4.3279317-9.99990712 9.41106528-9.78357949 15.54051198.05570342 1.5905647.25638831 3.2689615 1.3330666 4.7659411.39679143.552306 1.00571366 1.0969412 1.71383376 1.534567.34871862.2151693 1.18808511.0717231 1.47270665-.1837184.38267482-.3455749-.11636671-1.2798926-.12132661-1.2890977-.17092554-.3156583-.39183153-.6198102-.60586999-.9139899-.36321677-.5009109-.70659397-.973823-.79816122-1.4666794-.33765425-1.8199252-.42731385-3.3924633-.2739387-4.8081312.36397983-3.3567935 2.19532489-6.3434653 5.59895601-9.13146027 6.46922645-5.29945342 14.79001905-7.56352475 25.44425055-6.92300313 2.1815898.13117269 4.2075152.63093298 6.022836 1.4847061 2.3464109 1.10422859 3.4211815 2.73851758 3.2849752 4.99645218-.0850812 1.42218812-.6470752 2.84399272-1.7672479 4.47482982-2.5108504 3.6548086-5.8458061 6.9371943-9.9121552 9.7570236-2.4971153 1.7317096-5.3509614 3.0806405-8.4825614 4.0092051-1.609676.4775146-2.8870392.911305-4.0194209 1.3650398-.4441012.1775817-.864929.7302713-.8832425 1.1590756-.0133535.3110557.3166701.5676479.6363924.8158021.0892781.0690383.176267.1369259.2510469.2025122.112933.0993384.2426532.187554.371992.2738518.1579535.1066257.3075133.2067312.4139603.3248633.631051.6995877 1.2533267 1.4053121 1.875221 2.1110366.9744282 1.1053792 1.981668 2.2479624 3.0102735 3.348739 3.668413 3.9259757 6.9392716 6.8459104 10.2933038 9.1901429.4391413.3068367.9374198.6550963 1.495217.8238565.114459.0345191.2544806.0517787.4021328.0517787.3605461 0 .7649681-.1016397.9446688-.2968645.2685973-.2911113.0900412-.8890594-.0953825-1.2208265-.1571905-.2803721-.4383782-.4920894-.7107908-.6969029"/><path d="m20.3266801 9.04144607c.2023-.44968818.4112571-.91473718.4955796-1.39898721.0536262-.3068325-.0972667-.59830417-.2429819-.88017532-.0565849-.1079098-.1127999-.21543558-.1538516-.3218093l-.0732275-.19047424-.1834384.07565207c-.1279631.05261083-.2673911.09715722-.4068191.14131959-.3424677.10906187-.6960304.22157992-.922.45660055-.319168.3329459-.4959494.75460057-.6664436 1.16281451-.0403121.09523712-.0795146.1897062-.1209362.28225518-4.2039205 9.4653409-7.7661764 19.7505658-11.55181291 33.3487368-.05695467.2050671-.09282872.4101341-.13868832.669732-.02440915.1390155-.05140714.2953119-.08654152.4765697l-.02551865.1294149.10318411.0775722c.06620056.0499227.13572964.1167423.21006659.1874021.2133951.2027629.47930685.4550644.80698113.4884742.0218203.0023041.0447501.0034562.06767991.0034562.41421579 0 .96933893-.3483067 1.16276291-.6635877.25999438-.4239588.38573847-.9001444.50667469-1.3613532.0281075-.1059897.05584516-.2115953.085432-.316817 3.34146406-11.9038719 6.92147206-22.3515376 10.94639216-31.9401491.0595435-.14208763.123525-.28417527.1875066-.42664693"/><path d="m100.569879 6.14261642c.211513.07516851.501817.10738358.785237.10738358.240199 0 .475809-.02295787.653663-.062949.970742-.21698889 2.019893-.48174496 3.301976-.83351876 2.45707-.67392454 5.013204-1.16603757 7.596876-1.46189785 4.216492-.48285583 8.281903-.64059861 12.085696-.46915517 1.025054.04628603 1.868812.13256318 2.580612.26364521l.096386.01814412.098298-.01147893c.466629-.05332151.790975-.16737027 1.02123-.36103101.351502-.29548999.385925-.6531884.375216-.84018395-.021802-.37843455-.247467-.70910192-.670493-.98348549l-.127749-.08257427-.149169-.02036585c-1.167338-.1570022-2.482697-.26549665-3.909358-.32141017-2.813162-.11071617-5.907449-.00444345-9.736103.33696228-3.681781.32807535-7.122215.93386686-10.225682 1.7996007-.427616.11960309-.863264.23068956-1.298912.34214631l-.629567.15848335c-.170205.0407317-.3821.09183148-.426086.1036807l-.064257.02036585c-.119717.04480487-.342322.11590021-.463952.15478047l-.161025.05628381c-.139989.06331929-.262001.10294012-.387073.14404212-.133486.04406429-.270798.08998003-.427616.1536696l-.364124.18773613-.079556.39361636c-.2122781.89387574.399695 1.1623347.525532 1.20750986"/></g><path d="m239.425019 40.5059176c-.39391 0-.729887-.1361285-1.00794-.4083895-.278054-.272261-.417079-.6169268-.417079-1.0340075 0-.4286663.136128-.7762284.40839-1.0426966.272261-.2664683.611134-.3997004 1.016629-.3997004s.744368.1332321 1.016629.3997004c.272261.2664682.408389.6140303.408389 1.0426966 0 .4170807-.139024.7617465-.417078 1.0340075s-.614031.4083895-1.00794.4083895zm7.629063 0c-.961602 0-1.824715-.2027445-2.589363-.6082397s-1.361296-.9702835-1.789962-1.694382c-.428667-.7240985-.642997-1.5437657-.642997-2.4590262s.21433-1.7320314.642997-2.4503371c.428666-.7183057 1.022418-1.2801977 1.781273-1.6856929s1.624864-.6082397 2.598052-.6082397c.915261 0 1.71755.1853664 2.406892.5561049.689342.3707384 1.207788.9036669 1.555356 1.5988015l-1.668315.9731835c-.266468-.4286663-.599549-.7501612-.999251-.9644944s-.837051-.3214981-1.31206-.3214981c-.81099 0-1.482944.2635679-2.01588.7907116-.532937.5271437-.799401 1.2309569-.799401 2.1114607 0 .8805037.263568 1.5843169.790712 2.1114606s1.201993.7907116 2.024569.7907116c.475009 0 .912358-.1071649 1.31206-.3214981.399702-.2143331.732783-.535828.999251-.9644944l1.668315.9731836c-.359153.6951345-.883393 1.2309594-1.572734 1.6074906-.689342.3765312-1.485839.564794-2.389514.564794zm9.870862 0c-.938432 0-1.784166-.2027445-2.537229-.6082397-.753062-.4054952-1.341021-.9702835-1.763895-1.694382-.422873-.7240985-.634307-1.5437657-.634307-2.4590262s.211434-1.7320314.634307-2.4503371c.422874-.7183057 1.010833-1.2801977 1.763895-1.6856929.753063-.4054952 1.598797-.6082397 2.537229-.6082397.950017 0 1.801544.2027445 2.554607.6082397.753062.4054952 1.341021.9673872 1.763895 1.6856929.422873.7183057.634307 1.5350766.634307 2.4503371s-.211434 1.7349277-.634307 2.4590262c-.422874.7240985-1.010833 1.2888868-1.763895 1.694382-.753063.4054952-1.60459.6082397-2.554607.6082397zm0-1.8594757c.799405 0 1.459772-.2664642 1.981123-.7994007s.782023-1.2338533.782023-2.1027715-.260672-1.5698351-.782023-2.1027716-1.181718-.7994007-1.981123-.7994007-1.456877.2664642-1.972435.7994007-.773333 1.2338534-.773333 2.1027716.257775 1.569835.773333 2.1027715 1.17303.7994007 1.972435.7994007zm18.751161-7.6464419c1.170143 0 2.096975.338873 2.780524 1.0166292s1.025319 1.6943753 1.025319 3.0498877v5.3177528h-2.172285v-5.0397004c0-.8109903-.179574-1.4221203-.538727-1.8334083-.359153-.4112879-.874703-.6169288-1.546666-.6169288-.729892 0-1.314954.2403971-1.755206.7211985s-.660375 1.1672365-.660375 2.0593259v4.7095131h-2.172285v-5.0397004c0-.8109903-.179573-1.4221203-.538726-1.8334083-.359153-.4112879-.874703-.6169288-1.546667-.6169288-.741477 0-1.329438.2375008-1.763895.7125094-.434459.4750086-.651685 1.16434-.651685 2.068015v4.7095131h-2.172285v-9.28h2.068015v1.1817228c.347567-.4170807.78202-.7356793 1.303371-.9558052.521351-.220126 1.100621-.3301873 1.737828-.3301873.695134 0 1.312057.1303358 1.850786.3910112.538729.2606755.964493.6458901 1.277303 1.1556555.382324-.4865942.874704-.8660162 1.477154-1.1382772s1.268611-.4083895 1.998502-.4083895z" fill-rule="nonzero"/><path d="m46.5559669 43.1296986c.5430589-.1285915.6754749.0512186.4102601.6051788-1.6888787 3.4403656-2.8098227 4.0455444-4.0754293 4.5217686-1.2281015.4646001-3.071976.6563975-4.934603.6563975-1.401467 0-2.815946-.107886-3.9809011-.2938714-.6027609-.0955354-1.2342248-.2034215-1.8748736-.3145768-2.1531003-.3712441-4.5905508-.7911642-5.7964553-.6291535l-5.9885735.8329383s-.2621532.0810053-.2874117-.2335715c-.0252586-.3145767-.0692697-.9949489-.0692697-.9949489-.0539615-.3567141.1986241-.3265641.1986241-.3265641l5.8940452-.8184081c1.3161663-.1834022 3.4206489.1348967 5.5592337.49797l.8020948.1373588c.6284022.107886 1.2533601.215772 1.8499977.312034 2.8729692.4555188 6.3835254.3356454 7.9870609-.2698967.7007335-.2637214 1.4114173-.4765874 2.6487038-2.7029627.1641806-.2876961.3471137-.6258843.4956034-.7101589.1894392-.110792.5587498-.1583781.8836667-.215772.0570231-.0119874.1201695-.0207054.1768099-.0326928.0317645-.0090813.0696523-.0148933.1014169-.0210686zm2.3820832-5.8208962c.4969554-.1359939.5984882.0643038.470779.5448444-.2974594.9532605-.5167861 1.7240372-.7948114 2.5482555-.0099153.0073863-.0130882.0217243-.0230035.0321519-.7031939 1.9925491-1.7339896 2.5877937-4.3318011 2.6164698-1.0565756.0108621-2.0675407.0247656-2.6858595.0395381-.3303782-.0034759-.4612603-.1220903-.3204629-.4766302.1372279-.3441123.2288454-.6738865.4576908-1.0427644.199496-.3193466.5893661-.3588848.8439913-.3619262.5104402-.0112966 1.0867181-.0182484 1.6883791-.0256346 1.8224342-.0178139 2.2805216-.2146357 2.6501644-1.2148206.0329188-.0968902.0622682-.1794423.0947904-.2763325.0392646-.1216559.0785293-.2398358.1213634-.3827815.0027763-.0147725.0126916-.0217242.0162611-.0360622.134055-.4014643.1963232-.6669348.3303782-1.0896889.0817021-.2081184.1864078-.3975539.3502088-.4840164.2780253-.1399043.7618925-.2902361 1.1319319-.3906022zm2.3601782-6.987646c.5004818-.1359137.5983591.0647002.470762.5445235-.2975945.9526989-.5163324 1.7230216-.7972839 2.5467545-.0067365.0073818-.0103028.0217114-.0198132.0321329-.3530715.9995957-.7877735 1.6439919-1.4578565 2.0452197-.670083.4016621-1.5787172.558853-2.8796531.5736168-1.0528743.0104215-2.0625559.0286592-2.6807283.0390807-.3300882 0-.4608554-.1215842-.3201816-.4763495.1371075-.3434753.2290408-.6734895.4576853-1.0425844.0491368-.0820693.1145204-.1432956.1862443-.193232.2060574-.1467695.4739321-.168481.6633465-.1715206.5099922-.0112899 1.0857643-.0178034 1.6837272-.0251853.9118043-.0108557 1.4808399-.0642659 1.8695752-.2401287.3827914-.1754286.5884526-.4728757.7746968-.9705024.03289-.0968331.0622135-.1754286.0947072-.2761698.0392302-.1215841.0788566-.2401287.1176905-.3834244.0067365-.0138953.0162469-.0212772.0198133-.0356068.1339373-.4012278.1961508-.6661076.3300882-1.0890469.0816304-.2075616.1862442-.397754.3499014-.4798233.0031701-.0034738.0063402-.0034738.0063402-.0034738.2781776-.1432957.7616201-.2939732 1.1309385-.3942802zm-22.7110737-29.59254364c.4912043-.75962389 1.6488533-.76922925 2.2967119-.7031924.1282062.01320737 3.1099488.32658224 4.2114602 2.39693757.7980647 1.49523438 1.8275075 4.55254046 2.0964371 6.88023939.0470342.39582088.1031718.77243108.1623439 1.15224298.2693089 1.7825948.551135 3.6248228-.2093782 7.0451314-.4695837 2.1095772-.7946509 3.3210533-1.0169256 4.0442568.3349293-.0264147.7259961-.0660368 1.0954424-.1024571 1.1572697-.1124628 2.5967448-.2509401 4.2490118-.3069713l.2749985-.0100056c5.246972-.188105 8.091405.0332185 9.2209852.713198 1.5991638.960536 2.4154353 2.0599495 1.8555763 4.8198896 0 .0136076-.0064483.0200112-.0094827.0300168-.0034138.0100056 0 .0196109-.0034138.0296165-.0371722.1388775-.1122753.5383004-.1308614.6043372-.2757571.9209139-.6607551 1.6637285-1.0203394 1.9843073-.2876674.2583842-.5015366.3968935-.5755776.4419619l-.0282812.0166941c-.632307.333386-1.4736128.4686615-2.6593306.4786671-1.0078222.0100056-1.9742998.0264147-2.5660208.0360201-.3159638 0-.4411355-.1084605-.3068604-.4358432.13162-.3165767.2196195-.6203462.4384804-.960536.1877576-.2937639.5628936-.3301843.8071681-.3365878.4881698-.0064036 1.0389255-.0132074 1.6113018-.0200112.9729258-.0100056 1.5270952-.078844 1.8961622-.2901619.2753779-.1716958.4472045-.4262379.5977899-.8220588.1027926-.3734083.2063438-.7364109.3125501-1.1226264.3975151-1.9875091-.0656204-2.3673211-1.066615-2.9712581-.4540321-.2709512-2.1370231-.6967888-8.3136797-.4754653l-.2784123.0100056c-1.5991638.0528295-3.0132252.1881049-4.1488743.3005677-2.1309541.2077159-2.7033304.2637472-3.1008455-.3137751-.172206-.25094-.2033093-.6703741-.0751031-.9509306.1312407-.2805566.4726182-1.0169675 1.3048207-4.7706622.6910997-3.10013.4475838-4.7042251.1873783-6.4015723-.0591721-.3994229-.121758-.79564401-.1687922-1.21147606-.2408608-2.05674773-1.1766144-4.89953409-1.9026106-6.26269478-.519273-.97734539-2.177609-1.43640156-2.8967776-1.50884198-.3504808-.03321854-.616376-.00320179-.7574787.02961653-.0250343.22772707-.0781375.83846789-.1247924 1.77298938l-.009862.18810497c-.0125172.24413623-.0436205 1.00015812-.081172 1.94108319-.0531032 1.31073143-.1187235 2.98126364-.172206 4.13670841-.1096201 2.22203994-1.3203722 4.84990644-2.0338512 6.22027114-.484756.9241157-1.7425424 2.7995622-2.753399 4.308004-.5754107.858479-1.0730633 1.5980918-1.2923035 1.9610943-1.2232693 2.0371368-3.3917749 2.4497671-4.3927696 2.5522243-.2564124.0232129-.2658951-.2773548-.2658951-.2773548l-.0690341-1.1886633s-.0470342-.2341307.1816887-.2441363c.6789619-.0332185 2.2777464-.3469936 3.1160178-1.7433728.2287229-.37621.7415477-1.1454392 1.3393377-2.0367366.9888567-1.4692199 2.2185743-3.3014423 2.6566754-4.1435122.5223075-.9969563 1.7425424-3.5359732 1.8362316-5.49026375.0565169-1.15224298.1225165-2.8159714.1752404-4.12350104.0379308-.95413244.0659996-1.72015991.0815513-1.96429614l.0091034-.18490318c.0879995-1.75297822.1816887-2.36051725.4164805-2.72031803z"/></g><path d="m16.0780938.82651469c-.0277192-.45464594-.3891931-.80991352-.8248346-.80991352h-4.817529c-.3150254 0-.43863821.09937836-.3056608.4280914.1296062.3186545.2161352.62403173.4326449.96602204.2097672.3351505.6705059.34158797.8960057.34158797h2.6355753c.2258743.00362107.3614738.04345289.3831997.22249487l.0618064.90607315v-.00321873l.5809803 9.73787233c.0029967.1194955.0059934.2583033.0123613.3315295.0217259.2623266-.0123613.3918806-.244229.4216539h-3.0217717c-.3150254 0-.4420095.0961596-.309032.4280914.1296061.3186545.2161351.6240317.4356415.966022.2101418.3351505.6427867.3081937.8682865.3081937h1.9808019c.246851.003621.4139156.0136796.4322703.2027801l.0063679.0563278.63979 10.7566011c.0183546.2623267-.0157325.3918807-.2505969.4180329l-.0430772.0036211h-4.2519066s-.1760546.0096562-.3337546 0c-.1606967-.0100586-1.30692471-.0961597-1.54178908-1.1217282-.08016104-.3588887-.15732541-1.1619624-.17605463-1.420668 0 0-.19478385-3.4484694-.30266413-5.3966071-.00636793-.3287131-.02509715-.6369067-.05281639-.9193505 0-.0064374-.00299667-.0132772-.00299667-.0197147-.00299668-.0136796 0-.0233358 0-.0398318-.00599335-.0595466-.01236129-.1231165-.01872922-.1858818-.00599335-.0498904-.01535796-.0897222-.01835463-.1396125l.00299667-.0032187c-.00299667-.0197148-.00899002-.0329921-.01236128-.0531091-.14833539-1.2082317-.50980926-1.89181-1.07206032-2.416061-.00636793-.0036211-.00936461-.0100585-.01573254-.016496 0 0-.00299668 0-.00299668.0032187-.253219-.2357721-.54389643-.3818221-.88027314-.5874186.86791186-.7334686 1.16158597-1.3180709 1.39645034-2.1308008.23786104-.8135346.1359741-2.88760527.1359741-2.88760527l-.26895154-5.00472645c-.00599335-.1162767-.08952565-1.15190383-.21613515-1.70633048-.45437078-1.99762576-2.38235627-2.44583423-3.07159141-2.44583423h-4.09420661c-.22849643 0-.44800284.09656197-.60233158.27238522-.1577.17220218-.23823563.40475559-.22549976.64374647l1.57250497 26.49137414c.02809382.458267.38956769.8099136.82820593.8099136h.77576412v.003621h2.28009475c.3154 0 .4420095-.0961596.30603539-.4284937-.1266095-.3186545-.21613515-.6236294-.43264489-.9656197-.2101418-.3351505-.67050593-.3419903-.89600569-.3419903h-.35847719v-.0032188h-.48808337c-.25359359 0-.39855772-.032992-.42028361-.2257136l-.0310905-.4775794-1.42754083-24.05278206h3.11167193c.21950641 0 1.32865058.09656197 1.56351495 1.12213056.08016104.35848632.15470332 1.16477877.17605463 1.42026565 0 0 .12361282 2.56573201.26258361 4.88885208.17006128 2.83087507-.20377387 3.23603307-.48471211 3.53135167-.38956769.4047556-.75441282.7535858-1.02935771.9362488-.26258361.1991591-.63042541.3850409-.77538954.4807982-.30903206.2092176.23786104.2393932 1.60659214 1.1647787.24422898.1665694.46673206.405158.64915463.7471483.02771924.0498903.0524418.1029994.07716437.1561085.04644845.1025971.09252232.2055965.12960617.3150334.2101418.5475869.33375463 1.1716186.3678418 1.9183645.00599335.1327727.04008052.6441488.04008052.653805l.26595487 5.0051288c.00936461.1162767.09252233 1.1515015.21913183 1.7059281.45437078 1.9980281 2.33590778 2.4458343 3.07159138 2.4458343h.339748 5.5251187c.2284964 0 .4476283-.0961597.6023316-.2723853.1577-.1722022.237861-.4043532.2225031-.6433441z" fill="#c0a574" stroke="#c0a574" transform="translate(0 21.73913)"/></g></svg>